HIERARCHY
ROOT Hips
{
    OFFSET 0.000000 0.000000 0.000000
    CHANNELS 6 Xposition Yposition Zposition Zrotation Xrotation Yrotation
    JOINT Spine
    {
        OFFSET -0.000000 7.305680 0.000000
        CHANNELS 3 Zrotation Xrotation Yrotation
        JOINT Spine1
        {
            OFFSET -0.000000 20.356600 0.000000
            CHANNELS 3 Zrotation Xrotation Yrotation
            JOINT Neck
            {
                OFFSET -0.000000 22.138500 0.000000
                CHANNELS 3 Zrotation Xrotation Yrotation
                JOINT Head
                {
                    OFFSET -0.000000 13.809501 1.781870
                    CHANNELS 3 Zrotation Xrotation Yrotation
                    End Site
                    {
                        OFFSET -0.000000 17.818779 0.000000
                    }
                }
            }
            JOINT LeftShoulder
            {
                OFFSET 3.599130 17.990000 0.023591
                CHANNELS 3 Zrotation Xrotation Yrotation
                JOINT LeftArm
                {
                    OFFSET 12.560999 0.000000 0.000000
                    CHANNELS 3 Zrotation Xrotation Yrotation
                    JOINT LeftForeArm
                    {
                        OFFSET 22.903299 0.000000 0.000000
                        CHANNELS 3 Zrotation Xrotation Yrotation
                        JOINT LeftHand
                        {
                            OFFSET 21.865299 0.000000 0.000000
                            CHANNELS 3 Zrotation Xrotation Yrotation
                            JOINT LeftHandThumb1
                            {
                                OFFSET 1.853710 -2.106480 2.949080
                                CHANNELS 3 Zrotation Xrotation Yrotation
                                JOINT LeftHandThumb2
                                {
                                    OFFSET 2.049150 0.000000 1.336400
                                    CHANNELS 3 Zrotation Xrotation Yrotation
                                    JOINT LeftHandThumb3
                                    {
                                        OFFSET 2.672810 0.000000 0.000000
                                        CHANNELS 3 Zrotation Xrotation Yrotation
                                        End Site
                                        {
                                            OFFSET 2.381310 0.000000 0.000000
                                        }
                                    }
                                }
                            }
                            JOINT LeftHandIndex1
                            {
                                OFFSET 7.583340 0.000000 2.949080
                                CHANNELS 3 Zrotation Xrotation Yrotation
                                JOINT LeftHandIndex2
                                {
                                    OFFSET 4.454680 0.000000 0.000000
                                    CHANNELS 3 Zrotation Xrotation Yrotation
                                    JOINT LeftHandIndex3
                                    {
                                        OFFSET 2.227340 0.000000 0.000000
                                        CHANNELS 3 Zrotation Xrotation Yrotation
                                        End Site
                                        {
                                            OFFSET 1.984424 0.000000 0.000000
                                        }
                                    }
                                }
                            }
                            JOINT LeftHandMiddle1
                            {
                                OFFSET 7.583340 0.000000 0.977409
                                CHANNELS 3 Zrotation Xrotation Yrotation
                                JOINT LeftHandMiddle2
                                {
                                    OFFSET 4.900150 0.000000 0.000000
                                    CHANNELS 3 Zrotation Xrotation Yrotation
                                    JOINT LeftHandMiddle3
                                    {
                                        OFFSET 2.672810 0.000000 0.000000
                                        CHANNELS 3 Zrotation Xrotation Yrotation
                                        End Site
                                        {
                                            OFFSET 2.381310 0.000000 0.000000
                                        }
                                    }
                                }
                            }
                            JOINT LeftHandRing1
                            {
                                OFFSET 7.162050 0.000000 -0.977409
                                CHANNELS 3 Zrotation Xrotation Yrotation
                                JOINT LeftHandRing2
                                {
                                    OFFSET 4.454680 0.000000 0.000000
                                    CHANNELS 3 Zrotation Xrotation Yrotation
                                    JOINT LeftHandRing3
                                    {
                                        OFFSET 2.227340 0.000000 0.000000
                                        CHANNELS 3 Zrotation Xrotation Yrotation
                                        End Site
                                        {
                                            OFFSET 1.984424 0.000000 0.000000
                                        }
                                    }
                                }
                            }
                            JOINT LeftHandPinky1
                            {
                                OFFSET 6.740750 0.000000 -2.949080
                                CHANNELS 3 Zrotation Xrotation Yrotation
                                JOINT LeftHandPinky2
                                {
                                    OFFSET 3.563750 0.000000 0.000000
                                    CHANNELS 3 Zrotation Xrotation Yrotation
                                    JOINT LeftHandPinky3
                                    {
                                        OFFSET 1.781870 0.000000 0.000000
                                        CHANNELS 3 Zrotation Xrotation Yrotation
                                        End Site
                                        {
                                            OFFSET 1.587538 0.000000 0.000000
                                        }
                                    }
                                }
                            }
                        }
                    }
                }
            }
            JOINT RightShoulder
            {
                OFFSET -3.506990 17.990000 0.023591
                CHANNELS 3 Zrotation Xrotation Yrotation
                JOINT RightArm
                {
                    OFFSET -12.560999 0.000000 0.000000
                    CHANNELS 3 Zrotation Xrotation Yrotation
                    JOINT RightForeArm
                    {
                        OFFSET -22.903299 0.000000 0.000000
                        CHANNELS 3 Zrotation Xrotation Yrotation
                        JOINT RightHand
                        {
                            OFFSET -21.865299 0.000000 0.000000
                            CHANNELS 3 Zrotation Xrotation Yrotation
                            JOINT RightHandThumb1
                            {
                                OFFSET -1.853710 -2.106480 2.949080
                                CHANNELS 3 Zrotation Xrotation Yrotation
                                JOINT RightHandThumb2
                                {
                                    OFFSET -2.049150 0.000000 1.336400
                                    CHANNELS 3 Zrotation Xrotation Yrotation
                                    JOINT RightHandThumb3
                                    {
                                        OFFSET -2.672810 0.000000 0.000000
                                        CHANNELS 3 Zrotation Xrotation Yrotation
                                        End Site
                                        {
                                            OFFSET -2.381310 0.000000 0.000000
                                        }
                                    }
                                }
                            }
                            JOINT RightHandIndex1
                            {
                                OFFSET -7.583340 0.000000 2.949080
                                CHANNELS 3 Zrotation Xrotation Yrotation
                                JOINT RightHandIndex2
                                {
                                    OFFSET -4.454680 0.000000 0.000000
                                    CHANNELS 3 Zrotation Xrotation Yrotation
                                    JOINT RightHandIndex3
                                    {
                                        OFFSET -2.227340 0.000000 0.000000
                                        CHANNELS 3 Zrotation Xrotation Yrotation
                                        End Site
                                        {
                                            OFFSET -1.984424 0.000000 0.000000
                                        }
                                    }
                                }
                            }
                            JOINT RightHandMiddle1
                            {
                                OFFSET -7.583340 0.000000 0.977409
                                CHANNELS 3 Zrotation Xrotation Yrotation
                                JOINT RightHandMiddle2
                                {
                                    OFFSET -4.900150 0.000000 0.000000
                                    CHANNELS 3 Zrotation Xrotation Yrotation
                                    JOINT RightHandMiddle3
                                    {
                                        OFFSET -2.672810 0.000000 0.000000
                                        CHANNELS 3 Zrotation Xrotation Yrotation
                                        End Site
                                        {
                                            OFFSET -2.381310 0.000000 0.000000
                                        }
                                    }
                                }
                            }
                            JOINT RightHandRing1
                            {
                                OFFSET -7.162050 0.000000 -0.977409
                                CHANNELS 3 Zrotation Xrotation Yrotation
                                JOINT RightHandRing2
                                {
                                    OFFSET -4.454680 0.000000 0.000000
                                    CHANNELS 3 Zrotation Xrotation Yrotation
                                    JOINT RightHandRing3
                                    {
                                        OFFSET -2.227340 0.000000 0.000000
                                        CHANNELS 3 Zrotation Xrotation Yrotation
                                        End Site
                                        {
                                            OFFSET -1.984424 0.000000 0.000000
                                        }
                                    }
                                }
                            }
                            JOINT RightHandPinky1
                            {
                                OFFSET -6.740750 0.000000 -2.949080
                                CHANNELS 3 Zrotation Xrotation Yrotation
                                JOINT RightHandPinky2
                                {
                                    OFFSET -3.563750 0.000000 0.000000
                                    CHANNELS 3 Zrotation Xrotation Yrotation
                                    JOINT RightHandPinky3
                                    {
                                        OFFSET -1.781870 0.000000 0.000000
                                        CHANNELS 3 Zrotation Xrotation Yrotation
                                        End Site
                                        {
                                            OFFSET -1.587538 0.000000 0.000000
                                        }
                                    }
                                }
                            }
                        }
                    }
                }
            }
        }
    }
    JOINT LeftUpLeg
    {
        OFFSET 8.909360 0.000000 0.000000
        CHANNELS 3 Zrotation Xrotation Yrotation
        JOINT LeftLeg
        {
            OFFSET -0.000000 -38.765602 0.000000
            CHANNELS 3 Zrotation Xrotation Yrotation
            JOINT LeftFoot
            {
                OFFSET -0.000000 -35.245003 0.000000
                CHANNELS 3 Zrotation Xrotation Yrotation
                JOINT LeftToeBase
                {
                    OFFSET -0.000000 -5.791090 13.364000
                    CHANNELS 3 Zrotation Xrotation Yrotation
                    End Site
                    {
                        OFFSET -0.000000 0.000000 3.563756
                    }
                }
            }
        }
    }
    JOINT RightUpLeg
    {
        OFFSET -8.909360 0.000000 0.000000
        CHANNELS 3 Zrotation Xrotation Yrotation
        JOINT RightLeg
        {
            OFFSET -0.000000 -38.765602 0.000000
            CHANNELS 3 Zrotation Xrotation Yrotation
            JOINT RightFoot
            {
                OFFSET -0.000000 -35.245003 0.000000
                CHANNELS 3 Zrotation Xrotation Yrotation
                JOINT RightToeBase
                {
                    OFFSET -0.000000 -5.791090 13.364000
                    CHANNELS 3 Zrotation Xrotation Yrotation
                    End Site
                    {
                        OFFSET -0.000000 0.000000 3.563756
                    }
                }
            }
        }
    }
}
MOTION
Frames:    4
Frame Time:    0.033333
-1.423121    74.349632    159.086136    -0.997152    -14.005488    -14.590431    0.406540    12.443646    1.572816    -0.302090    15.291938    0.585462    -0.648849    -11.275908    8.650928    1.561916    -20.311420    9.006479    1.316980    7.763746    -10.909773    -85.987061    20.464573    1.355619    38.780598    2.847905    -32.092888    -1.622738    -39.255970    -28.803644    -2.299182    11.410091    12.768267    -0.000000    0.000000    14.352597    -0.000000    0.000000    28.705194    -33.299809    9.414342    -13.983261    -68.913826    0.000000    0.000000    -34.456913    0.000000    0.000000    -52.488407    -5.074720    -4.048005    -82.472260    0.000000    0.000000    -49.486134    0.000000    0.000000    -70.114899    -21.942314    0.954337    -96.030701    0.000000    0.000000    -64.515350    0.000000    0.000000    -89.999992    -39.999996    0.000000    -110.000000    0.000000    0.000000    -80.000000    0.000000    0.000000    -2.590620    -2.931456    3.490080    92.092949    47.250454    -1.582595    -50.392231    -16.969036    22.671528    -5.439465    -55.236370    25.813896    1.991811    0.137580    1.095383    0.000000    0.000000    0.000000    0.000000    0.000000    0.000000    26.526537    0.000000    -0.000000    53.053074    0.000000    -0.000000    26.526537    0.000000    -0.000000    41.741005    -4.144526    -2.646654    71.845551    0.000000    -0.000000    41.911823    0.000000    -0.000000    56.884102    -8.836688    -4.123943    90.638046    0.000000    -0.000000    57.297119    0.000000    -0.000000    72.624489    -13.898118    -4.298279    110.000000    0.000000    -0.000000    73.148613    0.000000    -0.000000    -2.843098    -12.190269    6.762106    -5.430621    44.380615    14.916717    3.073981    -18.078312    -4.504497    0.334579    -2.676484    -1.214628    -8.480927    -39.958591    5.772652    146.469604    72.604912    -150.214127    3.341833    -5.073533    3.222441    -0.391660    -2.093686    0.409550    
-1.697425    75.547821    158.423798    -1.439873    -13.541489    -14.756332    1.209108    11.009797    2.508839    0.003685    15.167176    0.879661    -0.728465    -10.156137    8.164665    0.872503    -19.568279    8.451027    1.762912    10.152184    -8.491258    -85.835983    18.375481    4.320397    37.786652    6.688221    -33.802746    -1.457427    -38.602345    -29.734245    -2.291339    11.324723    12.643625    -0.000000    0.000000    14.153042    -0.000000    0.000000    28.306084    -33.180378    9.595463    -14.301275    -68.773895    0.000000    0.000000    -34.386948    0.000000    0.000000    -52.451015    -4.913487    -4.233573    -82.378494    0.000000    0.000000    -49.439247    0.000000    0.000000    -70.111244    -21.846056    0.870216    -95.983116    0.000000    0.000000    -64.491562    0.000000    0.000000    -89.999992    -39.999996    0.000000    -110.000000    0.000000    0.000000    -80.000000    0.000000    0.000000    -2.995856    -2.920439    3.768183    92.628853    50.553696    -1.661775    -59.294788    -18.149439    24.097454    -5.201882    -58.299614    26.634050    1.963390    -0.014397    1.323939    0.000000    0.000000    0.000000    0.000000    0.000000    0.000000    26.696016    0.000000    -0.000000    53.392025    0.000000    -0.000000    26.696016    0.000000    -0.000000    41.790043    -4.267899    -2.731552    72.072662    0.000000    -0.000000    41.970985    0.000000    -0.000000    56.806702    -9.098014    -4.269741    90.753296    0.000000    -0.000000    57.245975    0.000000    -0.000000    72.421303    -14.312412    -4.478157    110.000000    0.000000    -0.000000    72.983826    0.000000    -0.000000    -2.076739    -10.802016    6.940652    -5.090785    40.061668    15.419758    2.763617    -15.494156    -5.976403    0.343558    -2.695191    -1.240893    -10.294387    -32.698341    2.561835    150.281128    73.772278    -154.097519    3.057836    -6.252285    3.812953    -0.381830    -2.131700    0.389952    
-2.171320    77.163483    157.821442    -2.148454    -12.839082    -13.896518    2.106480    8.899092    3.372257    0.977597    14.845519    1.055160    -0.909596    -8.266515    7.256432    0.335147    -18.049984    7.459071    2.491913    12.051389    -6.662521    -84.776894    18.210075    7.398114    37.715267    10.228783    -36.655365    -1.573860    -37.905350    -30.937416    -2.243858    11.230639    12.551744    -0.000000    0.000000    13.990746    -0.000000    0.000000    27.981489    -33.145691    9.541903    -14.243464    -68.681183    0.000000    0.000000    -34.340591    0.000000    0.000000    -52.417751    -4.954533    -4.196701    -82.316399    0.000000    0.000000    -49.408199    0.000000    0.000000    -70.089958    -21.869350    0.889682    -95.951599    0.000000    0.000000    -64.475792    0.000000    0.000000    -89.999992    -39.999996    0.000000    -110.000000    0.000000    0.000000    -80.000000    0.000000    0.000000    -3.549840    -2.763984    3.721606    90.877876    49.836727    -1.073319    -65.573753    -17.641125    28.143553    -3.390886    -58.735302    28.472805    1.963399    -0.273495    1.745394    0.000000    0.000000    0.000000    0.000000    0.000000    0.000000    26.885584    0.000000    -0.000000    53.771168    0.000000    -0.000000    26.885584    0.000000    -0.000000    41.894073    -4.267744    -2.729734    72.326691    0.000000    -0.000000    42.074490    0.000000    -0.000000    56.824497    -9.094944    -4.273475    90.882202    0.000000    -0.000000    57.263397    0.000000    -0.000000    72.347923    -14.307627    -4.496537    110.000000    0.000000    -0.000000    72.912567    0.000000    -0.000000    -1.341940    -8.941079    6.690116    -3.672829    34.288025    16.653320    2.007989    -11.989353    -9.360843    0.344979    -2.733435    -1.250467    -11.038765    -23.251120    -0.613321    141.895966    79.138885    -146.065460    2.937644    -6.030197    3.624065    -0.355226    -2.102101    0.350380    
-2.850440    78.753349    157.151611    -2.997087    -11.768712    -12.633210    2.725067    6.262911    4.343032    2.397987    14.089230    1.203501    -0.784197    -5.527060    6.085846    -0.256815    -16.522072    6.221635    3.605652    13.697841    -5.376474    -82.950829    19.912262    10.638697    38.964478    12.902996    -41.141724    -1.882017    -37.507202    -32.051937    -2.302855    11.216101    12.460443    -0.000000    0.000000    13.929075    -0.000000    0.000000    27.858152    -33.118732    9.339118    -13.969112    -68.530754    0.000000    0.000000    -34.265377    0.000000    0.000000    -52.357906    -5.120037    -4.029218    -82.215614    0.000000    0.000000    -49.357807    0.000000    0.000000    -70.042747    -21.965483    0.971950    -95.900452    0.000000    0.000000    -64.450233    0.000000    0.000000    -89.999992    -39.999996    0.000000    -110.000000    0.000000    0.000000    -80.000000    0.000000    0.000000    -4.129210    -2.567986    3.364910    88.009605    48.049034    -0.727540    -69.754860    -18.463942    32.773483    -1.020764    -57.988903    29.905682    2.158876    -0.851798    2.819406    0.000000    0.000000    0.000000    0.000000    0.000000    0.000000    27.245762    0.000000    -0.000000    54.491512    0.000000    -0.000000    27.245762    0.000000    -0.000000    42.230225    -4.175290    -2.640138    72.809311    0.000000    -0.000000    42.401157    0.000000    -0.000000    57.142193    -8.889546    -4.122200    91.127106    0.000000    -0.000000    57.556553    0.000000    -0.000000    72.641975    -13.973467    -4.316426    110.000000    0.000000    -0.000000    73.171188    0.000000    -0.000000    -0.352721    -7.382197    6.718517    -1.975293    28.256428    18.568209    1.316226    -8.198596    -13.961079    0.342145    -2.826282    -1.257358    -10.177074    -13.298428    -2.359568    78.112259    83.659653    -82.903328    3.285893    -4.898284    3.743378    -0.340675    -2.048065    0.332610    
